<svg xmlns="http://www.w3.org/2000/svg" width="25.245" height="25.245" viewBox="0 0 25.245 25.245">
  <path id="Path_14" data-name="Path 14" d="M12.724,25.569A12.623,12.623,0,1,0,.1,12.946,12.623,12.623,0,0,0,12.724,25.569Zm1.948-15.493a2.755,2.755,0,1,0-3.9,0l1.948,1.948Zm.922,4.818a2.755,2.755,0,1,0,0-3.9l-1.948,1.948Zm-.922,4.818a2.755,2.755,0,0,0,0-3.9l-1.948-1.948-1.948,1.948a2.755,2.755,0,0,0,3.9,3.9ZM5.958,14.894a2.755,2.755,0,0,1,3.9-3.9L11.8,12.946,9.854,14.894A2.755,2.755,0,0,1,5.958,14.894Z" transform="translate(-0.101 -0.323)" fill="#f051a4" fill-rule="evenodd"/>
</svg>
