<?xml version="1.0" standalone="no"?>
<!DOCTYPE svg PUBLIC "-//W3C//DTD SVG 20010904//EN"
 "http://www.w3.org/TR/2001/REC-SVG-20010904/DTD/svg10.dtd">
<svg version="1.0" xmlns="http://www.w3.org/2000/svg"
 width="260.000000pt" height="260.000000pt" viewBox="0 0 260.000000 260.000000"
 preserveAspectRatio="xMidYMid meet">
<metadata>
Created by potrace 1.14, written by Peter Selinger 2001-2017
</metadata>
<g transform="translate(0.000000,260.000000) scale(0.100000,-0.100000)"
fill="#000000" stroke="none">
<path d="M1210 2520 c-428 -35 -811 -291 -1000 -670 -91 -183 -131 -349 -131
-550 -1 -256 61 -469 196 -677 68 -105 249 -289 345 -352 140 -91 310 -159
481 -192 95 -18 327 -16 432 5 499 97 886 484 983 983 21 105 23 337 5 432
-33 171 -101 341 -192 481 -63 96 -247 277 -352 345 -160 104 -367 177 -534
190 -43 3 -94 7 -113 9 -19 1 -73 0 -120 -4z m216 -518 c53 -27 107 -88 129
-145 22 -58 17 -165 -10 -217 -21 -40 -222 -250 -240 -250 -20 0 -212 205
-237 252 -18 34 -23 59 -23 123 0 69 4 86 27 127 33 56 87 102 143 123 55 20
158 14 211 -13z m-468 -471 c46 -24 252 -216 252 -236 0 -18 -210 -219 -250
-240 -52 -27 -159 -32 -217 -10 -230 88 -227 415 4 501 53 20 157 13 211 -15z
m938 1 c94 -48 149 -147 142 -254 -7 -102 -57 -181 -144 -224 -54 -27 -183
-27 -238 0 -21 11 -89 68 -150 127 l-111 108 100 101 c111 113 141 137 194
157 50 19 156 11 207 -15z m-474 -441 c58 -60 113 -126 124 -148 27 -54 27
-183 0 -237 -43 -87 -122 -137 -224 -144 -107 -7 -205 47 -255 142 -29 55 -31
184 -3 236 18 34 233 260 247 260 4 0 54 -49 111 -109z"/>
</g>
</svg>
